<svg width="23" height="14" viewBox="0 0 23 14" fill="none" xmlns="http://www.w3.org/2000/svg">
<path d="M22.3636 6.83333C22.3636 7.28439 22.0205 7.65717 21.5752 7.71616L21.4514 7.7243L11.4788 7.72415L11.478 12.7743C11.478 13.4343 10.7773 13.8508 10.1884 13.5858L10.0795 13.5281L0.425928 7.58714C-0.141962 7.23765 -0.141962 6.42901 0.425928 6.07953L10.0795 0.13859C10.6869 -0.235242 11.478 0.191142 11.478 0.892396L11.4788 5.94127L21.4514 5.94237C21.9552 5.94237 22.3636 6.34127 22.3636 6.83333ZM9.65455 11.1583L9.65376 6.85105C9.65364 6.84516 9.65358 6.83925 9.65358 6.83333L9.65489 6.81842L9.65455 2.50646L2.62449 6.83298L9.65455 11.1583Z" fill="#4635E2"/>
</svg>
