<svg width="44" height="44" viewBox="0 0 44 44" fill="none" xmlns="http://www.w3.org/2000/svg">
<circle cx="22" cy="22" r="21" fill="url(#paint0_linear_395_2156)" stroke="#F6FBF3" stroke-width="2"/>
<path fill-rule="evenodd" clip-rule="evenodd" d="M21.9998 20.894C21.3268 20.894 20.6953 21.1454 20.2087 21.6179C19.7325 22.0804 19.4737 22.6937 19.484 23.3271V23.3372C19.484 23.9907 19.7428 24.604 20.2191 25.0665C20.6953 25.529 21.3268 25.7804 21.9998 25.7804C23.3871 25.7804 24.5052 24.6845 24.5155 23.3372C24.5155 22.6837 24.2567 22.0704 23.7805 21.6079C23.3042 21.1454 22.6727 20.894 21.9998 20.894ZM27.808 20.9644C27.2904 20.9644 26.8762 20.5622 26.8762 20.0595C26.8762 19.5568 27.2904 19.1446 27.808 19.1446C28.3256 19.1446 28.7501 19.5568 28.7501 20.0595C28.7501 20.5622 28.3256 20.9644 27.808 20.9644ZM24.8678 26.1323C24.1327 26.8461 23.1182 27.2885 22 27.2885C20.913 27.2885 19.8984 26.8763 19.1219 26.1323C18.3558 25.3782 17.9313 24.3929 17.9313 23.3372C17.921 22.2916 18.3455 21.3063 19.1116 20.5522C19.888 19.7981 20.913 19.3859 22 19.3859C23.0871 19.3859 24.112 19.7981 24.8782 20.5421C25.6443 21.2962 26.0687 22.2916 26.0687 23.3372C26.0584 24.4331 25.6029 25.4184 24.8678 26.1323ZM27.839 16.3194C27.7458 16.3194 27.6733 16.2691 27.6319 16.1987L27.5284 15.9775C27.2489 15.4044 26.9279 14.7409 26.7312 14.3588C26.255 13.4539 25.4371 12.9512 24.4329 12.9412H19.5566C18.5524 12.9512 17.7449 13.4539 17.2686 14.3588C17.0616 14.761 16.7096 15.4849 16.4197 16.0781L16.3576 16.1987C16.3265 16.2792 16.2437 16.3194 16.1609 16.3194C13.6658 16.3194 11.647 18.29 11.647 20.703V26.6752C11.647 29.0882 13.6658 31.0588 16.1609 31.0588H27.839C30.3237 31.0588 32.3529 29.0882 32.3529 26.6752V20.703C32.3529 18.29 30.3237 16.3194 27.839 16.3194Z" fill="white"/>
<defs>
<linearGradient id="paint0_linear_395_2156" x1="3.00001" y1="10.5" x2="13.091" y2="45.467" gradientUnits="userSpaceOnUse">
<stop stop-color="#FA457E"/>
<stop offset="1" stop-color="#7B49FF"/>
</linearGradient>
</defs>
</svg>
