<svg width="349" height="56" viewBox="0 0 349 56" fill="none" xmlns="http://www.w3.org/2000/svg">
<path d="M0 28.5H206M203 28.5H349" stroke="#EAC5D6"/>
<circle cx="174" cy="28" r="27" fill="white" stroke="#EAC5D6" stroke-width="2"/>
<path d="M168.356 34.16C167.566 34.16 166.836 34.016 166.164 33.728C165.502 33.44 164.921 33.04 164.42 32.528C163.929 32.0053 163.545 31.3973 163.268 30.704C163.001 30 162.868 29.232 162.868 28.4C162.868 27.568 163.001 26.8053 163.268 26.112C163.545 25.408 163.929 24.8 164.42 24.288C164.921 23.7653 165.502 23.36 166.164 23.072C166.836 22.784 167.566 22.64 168.356 22.64C169.145 22.64 169.87 22.784 170.532 23.072C171.204 23.36 171.785 23.7653 172.276 24.288C172.777 24.8107 173.161 25.424 173.428 26.128C173.705 26.8213 173.844 27.5787 173.844 28.4C173.844 29.2213 173.705 29.984 173.428 30.688C173.161 31.3813 172.777 31.9893 172.276 32.512C171.785 33.0347 171.204 33.44 170.532 33.728C169.87 34.016 169.145 34.16 168.356 34.16ZM168.356 32.48C169.07 32.48 169.71 32.304 170.276 31.952C170.841 31.6 171.284 31.1147 171.604 30.496C171.924 29.8773 172.084 29.1787 172.084 28.4C172.084 27.6213 171.924 26.9227 171.604 26.304C171.284 25.6853 170.841 25.2 170.276 24.848C169.71 24.496 169.07 24.32 168.356 24.32C167.63 24.32 166.985 24.496 166.42 24.848C165.865 25.2 165.428 25.6853 165.108 26.304C164.788 26.912 164.628 27.6107 164.628 28.4C164.628 29.1893 164.788 29.8933 165.108 30.512C165.428 31.12 165.865 31.6 166.42 31.952C166.985 32.304 167.63 32.48 168.356 32.48ZM176.343 34V22.8H181.111C181.751 22.8 182.338 22.96 182.871 23.28C183.415 23.5893 183.847 24.016 184.167 24.56C184.487 25.0933 184.647 25.696 184.647 26.368C184.647 27.0507 184.445 27.68 184.039 28.256C183.634 28.832 183.117 29.2533 182.487 29.52L185.095 34.016L182.999 34L180.631 29.792H178.071V34H176.343ZM178.071 28.128H181.271C181.741 28.128 182.125 27.9573 182.423 27.616C182.733 27.2747 182.887 26.8533 182.887 26.352C182.887 25.7973 182.69 25.344 182.295 24.992C181.911 24.64 181.421 24.464 180.823 24.464H178.071V28.128Z" fill="#33196B"/>
</svg>
