<svg width="50" height="47" viewBox="0 0 50 47" fill="none" xmlns="http://www.w3.org/2000/svg">
<g filter="url(#filter0_di_395_3665)">
<path d="M22.3937 33.6754C13.3489 28.0508 8.13889 25.0446 7.51479 19.7197C7.02109 15.5023 10.083 12.9226 10.1491 12.8533C15.0044 8.46094 20.3302 11.4329 21.6143 12.5026C22.5543 11.0675 26.8334 6.52726 32.5246 8.95884C33.3532 9.30976 36.1136 10.7357 36.8527 14.1869C38.12 20.1696 32.2036 26.2206 26.3103 33.0209C25.8143 33.598 25.1376 33.9454 24.4312 34.066C23.7395 34.1842 23.0162 34.0615 22.3937 33.6754Z" fill="url(#paint0_linear_395_3665)"/>
</g>
<g filter="url(#filter1_f_395_3665)">
<circle cx="15.0933" cy="17.7793" r="2.89192" transform="rotate(-10.4187 15.0933 17.7793)" fill="#FFA9B7"/>
</g>
<path d="M12.8861 13.7755C11.3516 14.5189 8.76594 16.8162 10.699 20.0584C10.7762 18.6605 11.3217 15.4469 12.8861 13.7755Z" fill="#FF748D"/>
<defs>
<filter id="filter0_di_395_3665" x="0.14309" y="0.937523" width="49.079" height="45.3683" filterUnits="userSpaceOnUse" color-interpolation-filters="sRGB">
<feFlood flood-opacity="0" result="BackgroundImageFix"/>
<feColorMatrix in="SourceAlpha" type="matrix" values="0 0 0 0 0 0 0 0 0 0 0 0 0 0 0 0 0 0 127 0" result="hardAlpha"/>
<feOffset dx="2.43928" dy="2.43928"/>
<feGaussianBlur stdDeviation="4.87857"/>
<feColorMatrix type="matrix" values="0 0 0 0 0.952941 0 0 0 0 0.27451 0 0 0 0 0.388235 0 0 0 0.3 0"/>
<feBlend mode="normal" in2="BackgroundImageFix" result="effect1_dropShadow_395_3665"/>
<feBlend mode="normal" in="SourceGraphic" in2="effect1_dropShadow_395_3665" result="shape"/>
<feColorMatrix in="SourceAlpha" type="matrix" values="0 0 0 0 0 0 0 0 0 0 0 0 0 0 0 0 0 0 127 0" result="hardAlpha"/>
<feOffset dx="-3.65892" dy="-4.87857"/>
<feGaussianBlur stdDeviation="5.48839"/>
<feComposite in2="hardAlpha" operator="arithmetic" k2="-1" k3="1"/>
<feColorMatrix type="matrix" values="0 0 0 0 0.854167 0 0 0 0 0.138802 0 0 0 0 0.353412 0 0 0 1 0"/>
<feBlend mode="normal" in2="shape" result="effect2_innerShadow_395_3665"/>
</filter>
<filter id="filter1_f_395_3665" x="6.70815" y="9.39394" width="16.7705" height="16.7707" filterUnits="userSpaceOnUse" color-interpolation-filters="sRGB">
<feFlood flood-opacity="0" result="BackgroundImageFix"/>
<feBlend mode="normal" in="SourceGraphic" in2="BackgroundImageFix" result="shape"/>
<feGaussianBlur stdDeviation="2.74639" result="effect1_foregroundBlur_395_3665"/>
</filter>
<linearGradient id="paint0_linear_395_3665" x1="18.9016" y1="14.5069" x2="27.9903" y2="27.8543" gradientUnits="userSpaceOnUse">
<stop stop-color="#FF5A90"/>
<stop offset="1" stop-color="#FF2C6B"/>
</linearGradient>
</defs>
</svg>
