<svg width="63" height="63" viewBox="0 0 63 63" fill="none" xmlns="http://www.w3.org/2000/svg">
<circle cx="31.5" cy="31.5" r="31.5" fill="#DF4D5F"/>
<path fill-rule="evenodd" clip-rule="evenodd" d="M42.8645 29.7278L42.7462 29.2354H31.8381V33.7646H38.3555C37.6789 36.9168 34.5389 38.5761 31.9741 38.5761C30.108 38.5761 28.1408 37.806 26.8388 36.5682C25.4514 35.2282 24.6644 33.4018 24.6513 31.4918C24.6513 29.584 25.5252 27.6757 26.7969 26.4205C28.0686 25.1652 29.9892 24.4629 31.8988 24.4629C34.0857 24.4629 35.6531 25.6021 36.2392 26.1217L39.5199 22.9202C38.5575 22.0905 35.9137 20 31.7931 20C28.6139 20 25.5655 21.1947 23.3372 23.3735C21.1382 25.519 20 28.6214 20 31.5C20 34.3786 21.077 37.326 23.208 39.4884C25.4849 41.7946 28.7096 43 32.0301 43C35.0513 43 37.9149 41.8387 39.9558 39.7317C41.9623 37.6576 43 34.7878 43 31.7793C43 30.5127 42.8702 29.7606 42.8645 29.7278Z" fill="white"/>
</svg>
