<svg width="178" height="96" viewBox="0 0 178 96" fill="none" xmlns="http://www.w3.org/2000/svg">
<path d="M0.32666 62V30.4999H13.1517C16.2117 30.4999 18.8817 31.1749 21.1617 32.525C23.4717 33.845 25.2567 35.69 26.5167 38.06C27.8067 40.43 28.4517 43.16 28.4517 46.25C28.4517 49.37 27.8067 52.115 26.5167 54.485C25.2567 56.825 23.4867 58.67 21.2067 60.02C18.9267 61.34 16.2417 62 13.1517 62H0.32666ZM12.9267 36.395H6.80666V56.1049H12.9267C15.7167 56.1049 17.9067 55.22 19.4967 53.45C21.0867 51.68 21.8817 49.28 21.8817 46.25C21.8817 43.25 21.0717 40.865 19.4517 39.095C17.8617 37.295 15.6867 36.395 12.9267 36.395Z" fill="#33196B"/>
<path d="M43.109 62.45C40.559 62.45 38.324 61.9249 36.404 60.875C34.484 59.825 32.984 58.385 31.904 56.555C30.854 54.725 30.329 52.625 30.329 50.255C30.329 47.795 30.839 45.635 31.859 43.775C32.909 41.885 34.334 40.4 36.134 39.32C37.964 38.24 40.064 37.7 42.434 37.7C44.564 37.7 46.469 38.225 48.149 39.275C49.859 40.295 51.179 41.69 52.109 43.46C53.069 45.2299 53.519 47.2549 53.459 49.535L53.414 51.4699H36.314C36.644 53.18 37.454 54.53 38.744 55.52C40.064 56.51 41.729 57.0049 43.739 57.0049C44.819 57.0049 45.794 56.84 46.664 56.51C47.564 56.18 48.524 55.5949 49.544 54.7549L52.514 58.895C51.224 60.035 49.739 60.9199 48.059 61.5499C46.409 62.1499 44.759 62.45 43.109 62.45ZM42.479 43.01C39.089 43.01 37.049 44.54 36.359 47.6H47.609V47.42C47.519 46.1299 46.979 45.08 45.989 44.2699C45.029 43.4299 43.859 43.01 42.479 43.01Z" fill="#33196B"/>
<path d="M64.4362 62.45C62.2462 62.45 60.2962 62.09 58.5862 61.3699C56.8762 60.65 55.4962 59.6299 54.4462 58.3099L58.3162 55.025C59.2162 56.0149 60.2362 56.7349 61.3762 57.1849C62.5162 57.6049 63.6712 57.815 64.8412 57.815C65.7712 57.815 66.5212 57.6049 67.0912 57.1849C67.6612 56.7649 67.9462 56.18 67.9462 55.43C67.9462 54.77 67.6762 54.2449 67.1362 53.8549C66.5962 53.4949 65.3062 53.045 63.2662 52.5049C60.2362 51.7249 58.0912 50.66 56.8312 49.3099C55.7212 48.1099 55.1662 46.625 55.1662 44.8549C55.1662 43.4449 55.5862 42.215 56.4262 41.165C57.2662 40.085 58.3762 39.245 59.7562 38.6449C61.1362 38.045 62.6362 37.745 64.2562 37.745C66.1162 37.745 67.8712 38.075 69.5212 38.735C71.1712 39.395 72.5512 40.295 73.6612 41.435L70.3312 45.08C69.4912 44.3 68.5162 43.655 67.4062 43.1449C66.3262 42.605 65.3212 42.335 64.3912 42.335C62.2312 42.335 61.1512 43.085 61.1512 44.585C61.1812 45.305 61.5112 45.875 62.1412 46.295C62.7412 46.715 64.1062 47.21 66.2362 47.78C69.0862 48.53 71.0962 49.52 72.2662 50.75C73.2862 51.7999 73.7962 53.195 73.7962 54.9349C73.7962 56.375 73.3762 57.665 72.5362 58.805C71.7262 59.945 70.6162 60.845 69.2062 61.505C67.7962 62.135 66.2062 62.45 64.4362 62.45Z" fill="#33196B"/>
<path d="M78.9838 62V43.775H74.4838V38.24H78.9838V32.1649H85.1038V38.24H90.0988V43.775H85.1038V62H78.9838Z" fill="#33196B"/>
<path d="M93.0959 62V38.24H99.2609V62H93.0959Z" fill="#33196B"/>
<path d="M104.332 62V38.24H110.272L110.362 41.435C111.172 40.3549 112.252 39.4699 113.602 38.78C114.952 38.09 116.362 37.745 117.832 37.745C123.292 37.745 126.022 40.985 126.022 47.465V62H119.902V47.9149C119.902 44.5249 118.477 42.89 115.627 43.01C114.157 43.01 112.927 43.46 111.937 44.36C110.977 45.26 110.497 46.37 110.497 47.69V62H104.332Z" fill="#33196B"/>
<path d="M141.599 62.45C139.049 62.45 136.814 61.9249 134.894 60.875C132.974 59.825 131.474 58.385 130.394 56.555C129.344 54.725 128.819 52.625 128.819 50.255C128.819 47.795 129.329 45.635 130.349 43.775C131.399 41.885 132.824 40.4 134.624 39.32C136.454 38.24 138.554 37.7 140.924 37.7C143.054 37.7 144.959 38.225 146.639 39.275C148.349 40.295 149.669 41.69 150.599 43.46C151.559 45.2299 152.009 47.2549 151.949 49.535L151.904 51.4699H134.804C135.134 53.18 135.944 54.53 137.234 55.52C138.554 56.51 140.219 57.0049 142.229 57.0049C143.309 57.0049 144.284 56.84 145.154 56.51C146.054 56.18 147.014 55.5949 148.034 54.7549L151.004 58.895C149.714 60.035 148.229 60.9199 146.549 61.5499C144.899 62.1499 143.249 62.45 141.599 62.45ZM140.969 43.01C137.579 43.01 135.539 44.54 134.849 47.6H146.099V47.42C146.009 46.1299 145.469 45.08 144.479 44.2699C143.519 43.4299 142.349 43.01 140.969 43.01Z" fill="#33196B"/>
<path d="M164.321 62.45C162.221 62.45 160.346 61.9249 158.696 60.875C157.046 59.795 155.741 58.325 154.781 56.465C153.851 54.6049 153.386 52.49 153.386 50.12C153.386 47.72 153.851 45.59 154.781 43.73C155.741 41.87 157.046 40.415 158.696 39.365C160.346 38.285 162.221 37.745 164.321 37.745C165.761 37.745 167.126 38.03 168.416 38.5999C169.736 39.1699 170.801 39.905 171.611 40.805V28.7H177.776V62H171.926L171.836 59.165C171.056 60.095 169.991 60.875 168.641 61.505C167.291 62.135 165.851 62.45 164.321 62.45ZM165.671 57.32C167.501 57.32 168.986 56.66 170.126 55.34C171.266 53.99 171.836 52.25 171.836 50.12C171.836 47.9599 171.266 46.2199 170.126 44.9C168.986 43.55 167.501 42.875 165.671 42.875C163.841 42.875 162.356 43.55 161.216 44.9C160.076 46.2199 159.506 47.9599 159.506 50.12C159.506 52.25 160.076 53.99 161.216 55.34C162.356 56.66 163.841 57.32 165.671 57.32Z" fill="#33196B"/>
<g filter="url(#filter0_di_395_1975)">
<path d="M95.891 27.5814C88.4751 22.9697 84.2033 20.5049 83.6916 16.1389C83.2868 12.681 85.7973 10.5659 85.8516 10.5091C89.8324 6.90773 94.1992 9.34448 95.252 10.2216C96.0228 9.04485 99.5312 5.32227 104.198 7.31596C104.877 7.60369 107.14 8.77279 107.746 11.6025C108.785 16.5078 103.934 21.4691 99.1023 27.0447C98.6956 27.518 98.1408 27.8027 97.5616 27.9017C96.9945 27.9986 96.4014 27.898 95.891 27.5814Z" fill="url(#paint0_linear_395_1975)"/>
</g>
<g filter="url(#filter1_f_395_1975)">
<circle cx="89.9054" cy="14.548" r="2.37113" transform="rotate(-10.4187 89.9054 14.548)" fill="#FFA9B7"/>
</g>
<path d="M88.0959 11.2653C86.8378 11.8748 84.7178 13.7584 86.3027 16.4167C86.366 15.2706 86.8132 12.6357 88.0959 11.2653Z" fill="#FF748D"/>
<path d="M12.5373 86.18C11.6133 86.18 10.7613 86.018 9.98134 85.694C9.20134 85.37 8.52334 84.92 7.94734 84.344C7.38334 83.756 6.93934 83.066 6.61534 82.274C6.30334 81.482 6.14734 80.612 6.14734 79.664C6.14734 78.728 6.30334 77.864 6.61534 77.072C6.93934 76.28 7.38334 75.596 7.94734 75.02C8.52334 74.432 9.20134 73.976 9.98134 73.652C10.7613 73.328 11.6133 73.166 12.5373 73.166C13.4493 73.166 14.2953 73.328 15.0753 73.652C15.8553 73.976 16.5273 74.432 17.0913 75.02C17.6673 75.608 18.1113 76.298 18.4233 77.09C18.7473 77.882 18.9093 78.74 18.9093 79.664C18.9093 80.6 18.7473 81.464 18.4233 82.256C18.1113 83.048 17.6673 83.738 17.0913 84.326C16.5273 84.914 15.8553 85.37 15.0753 85.694C14.2953 86.018 13.4493 86.18 12.5373 86.18ZM12.5373 83.714C13.2573 83.714 13.8993 83.54 14.4633 83.192C15.0273 82.844 15.4653 82.364 15.7773 81.752C16.1013 81.14 16.2633 80.444 16.2633 79.664C16.2633 78.884 16.1013 78.194 15.7773 77.594C15.4653 76.982 15.0273 76.502 14.4633 76.154C13.8993 75.794 13.2573 75.614 12.5373 75.614C11.8053 75.614 11.1573 75.788 10.5933 76.136C10.0293 76.484 9.58534 76.964 9.26134 77.576C8.94934 78.188 8.79334 78.884 8.79334 79.664C8.79334 80.456 8.94934 81.158 9.26134 81.77C9.58534 82.37 10.0293 82.844 10.5933 83.192C11.1573 83.54 11.8053 83.714 12.5373 83.714ZM21.1742 86V76.496H23.5502L23.5862 77.774C23.9102 77.342 24.3422 76.988 24.8822 76.712C25.4222 76.436 25.9862 76.298 26.5742 76.298C28.7582 76.298 29.8502 77.594 29.8502 80.186V86H27.4022V80.366C27.4022 79.01 26.8322 78.356 25.6922 78.404C25.1042 78.404 24.6122 78.584 24.2162 78.944C23.8322 79.304 23.6402 79.748 23.6402 80.276V86H21.1742ZM32.5172 86V72.68H34.9652V86H32.5172ZM39.2353 74.516C38.7553 74.516 38.3773 74.396 38.1013 74.156C37.8373 73.916 37.7053 73.586 37.7053 73.166C37.7053 72.758 37.8373 72.428 38.1013 72.176C38.3773 71.924 38.7553 71.798 39.2353 71.798C39.7153 71.798 40.0873 71.918 40.3513 72.158C40.6153 72.398 40.7473 72.734 40.7473 73.166C40.7473 73.562 40.6093 73.886 40.3333 74.138C40.0693 74.39 39.7033 74.516 39.2353 74.516ZM38.0113 86V76.496H40.4773V86H38.0113ZM43.4057 86V76.496H45.7817L45.8177 77.774C46.1417 77.342 46.5737 76.988 47.1137 76.712C47.6537 76.436 48.2177 76.298 48.8057 76.298C50.9897 76.298 52.0817 77.594 52.0817 80.186V86H49.6337V80.366C49.6337 79.01 49.0637 78.356 47.9237 78.404C47.3357 78.404 46.8437 78.584 46.4477 78.944C46.0637 79.304 45.8717 79.748 45.8717 80.276V86H43.4057ZM59.2126 86.18C58.1926 86.18 57.2986 85.97 56.5306 85.55C55.7626 85.13 55.1626 84.554 54.7306 83.822C54.3106 83.09 54.1006 82.25 54.1006 81.302C54.1006 80.318 54.3046 79.454 54.7126 78.71C55.1326 77.954 55.7026 77.36 56.4226 76.928C57.1546 76.496 57.9946 76.28 58.9426 76.28C59.7946 76.28 60.5566 76.49 61.2286 76.91C61.9126 77.318 62.4406 77.876 62.8126 78.584C63.1966 79.292 63.3766 80.102 63.3526 81.014L63.3346 81.788H56.4946C56.6266 82.472 56.9506 83.012 57.4666 83.408C57.9946 83.804 58.6606 84.002 59.4646 84.002C59.8966 84.002 60.2866 83.936 60.6346 83.804C60.9946 83.672 61.3786 83.438 61.7866 83.102L62.9746 84.758C62.4586 85.214 61.8646 85.568 61.1926 85.82C60.5326 86.06 59.8726 86.18 59.2126 86.18ZM58.9606 78.404C57.6046 78.404 56.7886 79.016 56.5126 80.24H61.0126V80.168C60.9766 79.652 60.7606 79.232 60.3646 78.908C59.9806 78.572 59.5126 78.404 58.9606 78.404ZM71.4467 86V73.4H76.5767C77.8007 73.4 78.8687 73.67 79.7807 74.21C80.7047 74.738 81.4187 75.476 81.9227 76.424C82.4387 77.372 82.6967 78.464 82.6967 79.7C82.6967 80.948 82.4387 82.046 81.9227 82.994C81.4187 83.93 80.7107 84.668 79.7987 85.208C78.8867 85.736 77.8127 86 76.5767 86H71.4467ZM76.4867 75.758H74.0387V83.642H76.4867C77.6027 83.642 78.4787 83.288 79.1147 82.58C79.7507 81.872 80.0687 80.912 80.0687 79.7C80.0687 78.5 79.7447 77.546 79.0967 76.838C78.4607 76.118 77.5907 75.758 76.4867 75.758ZM88.5416 86.18C87.7496 86.18 87.0356 85.964 86.3996 85.532C85.7636 85.1 85.2536 84.512 84.8696 83.768C84.4976 83.024 84.3116 82.178 84.3116 81.23C84.3116 80.258 84.4976 79.406 84.8696 78.674C85.2536 77.93 85.7696 77.348 86.4176 76.928C87.0776 76.508 87.8216 76.298 88.6496 76.298C89.3216 76.298 89.9096 76.436 90.4136 76.712C90.9176 76.976 91.3196 77.324 91.6196 77.756V76.496H94.0676V86H91.6016V84.722C91.2656 85.142 90.8276 85.49 90.2876 85.766C89.7596 86.042 89.1776 86.18 88.5416 86.18ZM89.2076 84.038C89.9396 84.038 90.5336 83.78 90.9896 83.264C91.4456 82.748 91.6736 82.07 91.6736 81.23C91.6736 80.39 91.4456 79.712 90.9896 79.196C90.5336 78.68 89.9396 78.422 89.2076 78.422C88.4876 78.422 87.8996 78.68 87.4436 79.196C86.9996 79.712 86.7776 80.39 86.7776 81.23C86.7776 82.07 86.9996 82.748 87.4436 83.264C87.8996 83.78 88.4876 84.038 89.2076 84.038ZM97.7655 86V78.71H95.9655V76.496H97.7655V74.066H100.214V76.496H102.212V78.71H100.214V86H97.7655ZM105.534 74.516C105.054 74.516 104.676 74.396 104.4 74.156C104.136 73.916 104.004 73.586 104.004 73.166C104.004 72.758 104.136 72.428 104.4 72.176C104.676 71.924 105.054 71.798 105.534 71.798C106.014 71.798 106.386 71.918 106.65 72.158C106.914 72.398 107.046 72.734 107.046 73.166C107.046 73.562 106.908 73.886 106.632 74.138C106.368 74.39 106.002 74.516 105.534 74.516ZM104.31 86V76.496H106.776V86H104.31ZM109.705 86V76.496H112.081L112.117 77.774C112.441 77.342 112.873 76.988 113.413 76.712C113.953 76.436 114.517 76.298 115.105 76.298C117.289 76.298 118.381 77.594 118.381 80.186V86H115.933V80.366C115.933 79.01 115.363 78.356 114.223 78.404C113.635 78.404 113.143 78.584 112.747 78.944C112.363 79.304 112.171 79.748 112.171 80.276V86H109.705ZM125.332 90.14C124.6 90.14 123.868 90.026 123.136 89.798C122.416 89.582 121.828 89.3 121.372 88.952L122.236 87.17C122.608 87.446 123.046 87.662 123.55 87.818C124.066 87.974 124.588 88.052 125.116 88.052C126.976 88.052 127.906 87.176 127.906 85.424V84.686C127.606 85.07 127.186 85.394 126.646 85.658C126.118 85.91 125.56 86.036 124.972 86.036C124.096 86.036 123.31 85.832 122.614 85.424C121.93 85.004 121.39 84.434 120.994 83.714C120.598 82.982 120.4 82.148 120.4 81.212C120.4 80.264 120.592 79.418 120.976 78.674C121.372 77.93 121.912 77.348 122.596 76.928C123.28 76.508 124.048 76.298 124.9 76.298C125.536 76.298 126.124 76.43 126.664 76.694C127.216 76.946 127.654 77.252 127.978 77.612L128.014 76.496H130.372V85.298C130.372 86.846 129.922 88.04 129.022 88.88C128.134 89.72 126.904 90.14 125.332 90.14ZM125.404 84.02C126.184 84.02 126.808 83.762 127.276 83.246C127.756 82.73 127.996 82.058 127.996 81.23C127.996 80.39 127.756 79.712 127.276 79.196C126.796 78.668 126.172 78.404 125.404 78.404C124.648 78.404 124.03 78.668 123.55 79.196C123.082 79.724 122.848 80.402 122.848 81.23C122.848 82.058 123.082 82.73 123.55 83.246C124.03 83.762 124.648 84.02 125.404 84.02ZM137.623 86L142.555 73.4H144.895L149.809 86H147.145L146.119 83.282H141.223L140.197 86H137.623ZM142.789 79.142L142.033 81.158H145.327L144.553 79.106C144.481 78.926 144.397 78.692 144.301 78.404C144.205 78.104 144.097 77.786 143.977 77.45C143.869 77.114 143.773 76.796 143.689 76.496C143.545 76.94 143.395 77.396 143.239 77.864C143.083 78.332 142.933 78.758 142.789 79.142ZM151.452 89.96V76.496H153.828L153.864 77.648C154.176 77.264 154.602 76.946 155.142 76.694C155.682 76.442 156.252 76.316 156.852 76.316C157.68 76.316 158.418 76.526 159.066 76.946C159.714 77.366 160.224 77.948 160.596 78.692C160.968 79.436 161.154 80.282 161.154 81.23C161.154 82.178 160.968 83.024 160.596 83.768C160.224 84.512 159.714 85.1 159.066 85.532C158.418 85.952 157.68 86.162 156.852 86.162C156.288 86.162 155.742 86.048 155.214 85.82C154.686 85.58 154.26 85.28 153.936 84.92V89.96H151.452ZM156.312 84.038C157.044 84.038 157.638 83.78 158.094 83.264C158.55 82.736 158.778 82.058 158.778 81.23C158.778 80.414 158.55 79.748 158.094 79.232C157.638 78.704 157.044 78.44 156.312 78.44C155.58 78.44 154.986 78.698 154.53 79.214C154.074 79.73 153.846 80.402 153.846 81.23C153.846 82.058 154.074 82.736 154.53 83.264C154.986 83.78 155.58 84.038 156.312 84.038ZM163.286 89.96V76.496H165.662L165.698 77.648C166.01 77.264 166.436 76.946 166.976 76.694C167.516 76.442 168.086 76.316 168.686 76.316C169.514 76.316 170.252 76.526 170.9 76.946C171.548 77.366 172.058 77.948 172.43 78.692C172.802 79.436 172.988 80.282 172.988 81.23C172.988 82.178 172.802 83.024 172.43 83.768C172.058 84.512 171.548 85.1 170.9 85.532C170.252 85.952 169.514 86.162 168.686 86.162C168.122 86.162 167.576 86.048 167.048 85.82C166.52 85.58 166.094 85.28 165.77 84.92V89.96H163.286ZM168.146 84.038C168.878 84.038 169.472 83.78 169.928 83.264C170.384 82.736 170.612 82.058 170.612 81.23C170.612 80.414 170.384 79.748 169.928 79.232C169.472 78.704 168.878 78.44 168.146 78.44C167.414 78.44 166.82 78.698 166.364 79.214C165.908 79.73 165.68 80.402 165.68 81.23C165.68 82.058 165.908 82.736 166.364 83.264C166.82 83.78 167.414 84.038 168.146 84.038Z" fill="#F93572"/>
<defs>
<filter id="filter0_di_395_1975" x="77.6475" y="0.739258" width="40.2405" height="37.1978" filterUnits="userSpaceOnUse" color-interpolation-filters="sRGB">
<feFlood flood-opacity="0" result="BackgroundImageFix"/>
<feColorMatrix in="SourceAlpha" type="matrix" values="0 0 0 0 0 0 0 0 0 0 0 0 0 0 0 0 0 0 127 0" result="hardAlpha"/>
<feOffset dx="2" dy="2"/>
<feGaussianBlur stdDeviation="4"/>
<feColorMatrix type="matrix" values="0 0 0 0 0.952941 0 0 0 0 0.27451 0 0 0 0 0.388235 0 0 0 0.3 0"/>
<feBlend mode="normal" in2="BackgroundImageFix" result="effect1_dropShadow_395_1975"/>
<feBlend mode="normal" in="SourceGraphic" in2="effect1_dropShadow_395_1975" result="shape"/>
<feColorMatrix in="SourceAlpha" type="matrix" values="0 0 0 0 0 0 0 0 0 0 0 0 0 0 0 0 0 0 127 0" result="hardAlpha"/>
<feOffset dx="-3" dy="-4"/>
<feGaussianBlur stdDeviation="4.5"/>
<feComposite in2="hardAlpha" operator="arithmetic" k2="-1" k3="1"/>
<feColorMatrix type="matrix" values="0 0 0 0 0.854167 0 0 0 0 0.138802 0 0 0 0 0.353412 0 0 0 1 0"/>
<feBlend mode="normal" in2="shape" result="effect2_innerShadow_395_1975"/>
</filter>
<filter id="filter1_f_395_1975" x="83.0303" y="7.67291" width="13.7501" height="13.7501" filterUnits="userSpaceOnUse" color-interpolation-filters="sRGB">
<feFlood flood-opacity="0" result="BackgroundImageFix"/>
<feBlend mode="normal" in="SourceGraphic" in2="BackgroundImageFix" result="shape"/>
<feGaussianBlur stdDeviation="2.2518" result="effect1_foregroundBlur_395_1975"/>
</filter>
<linearGradient id="paint0_linear_395_1975" x1="93.0279" y1="11.8648" x2="100.48" y2="22.8086" gradientUnits="userSpaceOnUse">
<stop stop-color="#FF5A90"/>
<stop offset="1" stop-color="#FF2C6B"/>
</linearGradient>
</defs>
</svg>
